<?xml version="1.0" encoding="UTF-8" standalone="no"?>
<!-- Created with Inkscape (http://www.inkscape.org/) -->

<svg
   width="260.70792mm"
   height="77.354858mm"
   viewBox="0 0 260.70792 77.354858"
   version="1.1"
   id="svg5"
   xml:space="preserve"
   xmlns="http://www.w3.org/2000/svg"
   xmlns:svg="http://www.w3.org/2000/svg"><style
     id="style2660">
.measure-arrow
{
}
.measure-label
{

}
.measure-line
{
}</style><defs
     id="defs2" /><g
     id="layer4"
     transform="translate(235.45621,-688.43425)"><circle
       style="display:inline;fill:#e9e9e9;fill-opacity:1;stroke:none;stroke-width:9.40001;stroke-linecap:round;stroke-linejoin:round;stroke-dasharray:none;stroke-opacity:0.134647;paint-order:stroke fill markers"
       id="path5753-3-5"
       cx="-196.77879"
       cy="727.11169"
       r="38.677418" /><path
       style="display:inline;fill:none;fill-rule:nonzero;stroke:#101277;stroke-width:3.02418;stroke-linecap:butt;stroke-linejoin:round;stroke-dasharray:none;stroke-opacity:1"
       d="m -192.70922,703.5091 -2.64367,45.87064 12.51202,-33.01556 -7.91083,-12.8349 z"
       id="path2550-1-3-7" /><path
       style="display:inline;fill:none;fill-rule:nonzero;stroke:#101277;stroke-width:3.02418;stroke-linecap:butt;stroke-linejoin:round;stroke-dasharray:none;stroke-opacity:1"
       d="m -197.98087,703.56387 c 0,0 -0.78109,-0.0253 -2.3116,-0.0607 -0.60617,-0.0141 -1.32386,-0.0291 -2.02274,-0.0397 -0.64736,-0.01 -1.30133,-0.0162 -1.83025,-0.0137 -0.96728,0.005 -1.99513,-0.0312 -3.06298,-0.029 -0.98055,0.002 -2.01536,0.0388 -3.04453,0.20028 -0.7569,0.11879 -1.60643,0.17264 -2.41535,0.33651 -0.39412,0.0798 -0.77889,0.18668 -1.13518,0.34303 -0.35256,0.1547 -0.6781,0.35821 -0.95876,0.63329 -0.81594,0.79972 -1.39278,1.86901 -1.73404,3.02912 -0.34112,1.15967 -0.44378,2.39966 -0.32082,3.53503 0.083,0.76648 0.20141,1.51281 0.38356,2.23556 0.18415,0.73073 0.4325,1.4333 0.77203,2.10428 0.34473,0.68126 0.78167,1.32632 1.33583,1.93215 0.56524,0.61795 1.24948,1.19179 2.07494,1.71914 1.02002,0.65165 1.5277,0.97815 2.54772,1.6298 0.74362,0.47467 1.41535,0.90032 2.22201,1.40404 1.70566,1.06507 4.02055,2.48197 8.18733,5.01438 0.31187,-5.02037 0.65343,-11.31287 0.8777,-15.54879 0.30141,-5.69308 0.43513,-8.42462 0.43513,-8.42462 z m 0,0 c 0,0 -0.13372,2.73154 -0.43513,8.42462 -0.22427,4.23592 -0.56583,10.52842 -0.8777,15.54878 -4.16678,-2.5324 -6.48167,-3.9493 -8.18733,-5.01437 -0.80666,-0.50372 -1.47839,-0.92937 -2.22201,-1.40404 -0.74016,-0.47246 -1.80755,-1.15734 -2.54772,-1.6298 -0.82546,-0.52735 -1.5097,-1.10119 -2.07494,-1.71914 -0.55416,-0.60583 -0.9911,-1.25089 -1.33583,-1.93214 -0.33953,-0.67099 -0.58788,-1.37356 -0.77203,-2.10429 -0.18215,-0.72275 -0.30055,-1.46908 -0.38356,-2.23556 -0.12296,-1.13537 -0.0203,-2.37536 0.32082,-3.53503 0.34126,-1.16011 0.9181,-2.2294 1.73404,-3.02912 0.28066,-0.27508 0.6062,-0.47859 0.95876,-0.63329 0.35629,-0.15635 0.74106,-0.2632 1.13518,-0.34303 0.80892,-0.16387 1.65845,-0.21772 2.41535,-0.33651 1.02917,-0.16152 2.06398,-0.19827 3.04453,-0.20028 1.06785,-0.002 2.0957,0.0338 3.06298,0.029 0.52892,-0.003 1.18289,0.004 1.83025,0.0137 0.69888,0.0106 1.41657,0.0256 2.02274,0.0397 1.53051,0.0355 2.3116,0.0607 2.3116,0.0607 z"
       id="path1760-3-4-4" /><path
       style="display:inline;fill:#000000;fill-rule:nonzero;stroke:#101277;stroke-width:3.02418;stroke-linecap:butt;stroke-linejoin:round;stroke-dasharray:none;stroke-opacity:1"
       d="m -217.77697,720.75624 c -0.56593,6.7639 -1.40533,16.79639 -2.38605,28.51796 0.34025,8.7e-4 1.30437,4.3e-4 2.68693,-0.024 1.62265,-0.0287 3.85124,-0.093 6.01035,-0.23872 0.98878,-0.0667 2.05494,-0.11438 3.04371,-0.18113 0.95909,-0.0642 1.85939,-0.14758 2.69102,-0.29595 0.83327,-0.14867 1.59148,-0.36155 2.26912,-0.6818 0.68315,-0.32285 1.28142,-0.75346 1.79105,-1.33329 0.77376,-0.88034 1.33527,-2.00645 1.69542,-3.24317 0.36981,-1.26993 0.52597,-2.65043 0.48923,-4.0091 -0.0382,-1.41144 -0.28358,-2.78992 -0.70685,-4.02273 -0.44594,-1.29883 -1.08275,-2.41982 -1.87559,-3.28439 -1.25012,-1.36322 -2.88511,-2.73126 -4.52292,-3.96082 -1.79722,-1.34924 -3.67375,-2.58864 -5.23776,-3.5713 -2.83607,-1.78188 -5.21976,-3.07955 -5.71931,-3.35048 -0.15952,-0.0865 -0.41155,-0.22092 -0.4113,-0.22079 z m -0.0664,-0.12111 c 2.5e-4,1.3e-4 0.25389,0.1354 0.41399,0.22223 0.50153,0.272 2.89051,1.57257 5.73313,3.35856 1.56743,0.98481 3.45021,2.22824 5.25487,3.58307 1.64323,1.23363 3.29201,2.61225 4.5571,3.99179 0.82013,0.89432 1.47282,2.04697 1.92783,3.37224 0.43199,1.25821 0.6815,2.66192 0.72031,4.09722 0.0374,1.38149 -0.12122,2.78815 -0.49911,4.08581 -0.36782,1.26309 -0.94435,2.42437 -1.7477,3.33838 -0.53431,0.60791 -1.16109,1.05832 -1.87207,1.39432 -0.7037,0.33257 -1.48478,0.55073 -2.33208,0.7019 -0.84524,0.1508 -1.75634,0.2349 -2.71825,0.29928 -1.03983,0.0696 -2.00373,0.11153 -3.04356,0.18113 -2.16497,0.14616 -4.39814,0.21048 -6.02279,0.23924 -1.7473,0.0309 -2.8273,0.0235 -2.82798,0.0235 l -0.13525,-7.3e-4 0.0113,-0.13479 c 0.98558,-11.77952 1.82925,-21.86308 2.39734,-28.65293 z"
       id="path2501-4-7-5" /><path
       style="display:inline;fill:none;fill-rule:nonzero;stroke:#101277;stroke-width:3.02418;stroke-linecap:butt;stroke-linejoin:round;stroke-dasharray:none;stroke-opacity:1"
       d="m -173.51741,703.69073 -17.39573,45.97155 13.41756,-0.16145 z"
       id="path2531-9-4-1" /><text
       xml:space="preserve"
       style="font-style:normal;font-variant:normal;font-weight:normal;font-stretch:normal;font-size:22.5778px;line-height:1.25;font-family:Ebrima;-inkscape-font-specification:'Ebrima, Normal';font-variant-ligatures:normal;font-variant-caps:normal;font-variant-numeric:normal;font-variant-east-asian:normal;fill:#ffffff;fill-opacity:1;stroke-width:0.264583"
       x="-130.28487"
       y="716.45111"
       id="text10708-1"><tspan
         id="tspan10706-0"
         style="font-style:normal;font-variant:normal;font-weight:normal;font-stretch:normal;font-size:22.5778px;font-family:Ebrima;-inkscape-font-specification:'Ebrima, Normal';font-variant-ligatures:normal;font-variant-caps:normal;font-variant-numeric:normal;font-variant-east-asian:normal;fill:#ffffff;fill-opacity:1;stroke-width:0.264583"
         x="-130.28487"
         y="716.45111">SPOLDZIELNIA</tspan></text><text
       xml:space="preserve"
       style="font-style:normal;font-variant:normal;font-weight:bold;font-stretch:normal;font-size:22.5778px;line-height:1.25;font-family:Ebrima;-inkscape-font-specification:'Ebrima, Bold';font-variant-ligatures:normal;font-variant-caps:normal;font-variant-numeric:normal;font-variant-east-asian:normal;fill:#ffffff;fill-opacity:1;stroke-width:0.264583"
       x="-94.516403"
       y="757.88934"
       id="text10762-8"><tspan
         id="tspan10760-8"
         style="font-style:normal;font-variant:normal;font-weight:bold;font-stretch:normal;font-size:22.5778px;font-family:Ebrima;-inkscape-font-specification:'Ebrima, Bold';font-variant-ligatures:normal;font-variant-caps:normal;font-variant-numeric:normal;font-variant-east-asian:normal;fill:#ffffff;fill-opacity:1;stroke-width:0.264583"
         x="-94.516403"
         y="757.88934">FABUD</tspan><tspan
         style="font-style:normal;font-variant:normal;font-weight:bold;font-stretch:normal;font-size:22.5778px;font-family:Ebrima;-inkscape-font-specification:'Ebrima, Bold';font-variant-ligatures:normal;font-variant-caps:normal;font-variant-numeric:normal;font-variant-east-asian:normal;fill:#ffffff;fill-opacity:1;stroke-width:0.264583"
         x="-94.516403"
         y="786.11157"
         id="tspan10764-7" /></text><text
       xml:space="preserve"
       style="font-style:normal;font-variant:normal;font-weight:normal;font-stretch:normal;font-size:22.5778px;line-height:1.25;font-family:Ebrima;-inkscape-font-specification:'Ebrima, Normal';font-variant-ligatures:normal;font-variant-caps:normal;font-variant-numeric:normal;font-variant-east-asian:normal;fill:#ffffff;fill-opacity:1;stroke-width:0.264583"
       x="-140.30045"
       y="737.30249"
       id="text10768-3"><tspan
         id="tspan10766-4"
         style="font-style:normal;font-variant:normal;font-weight:normal;font-stretch:normal;font-size:22.5778px;font-family:Ebrima;-inkscape-font-specification:'Ebrima, Normal';font-variant-ligatures:normal;font-variant-caps:normal;font-variant-numeric:normal;font-variant-east-asian:normal;fill:#ffffff;fill-opacity:1;stroke-width:0.264583"
         x="-140.30045"
         y="737.30249">MIESZKANIOWA</tspan></text></g></svg>
