<?xml version="1.0" encoding="UTF-8" standalone="no"?>
<!-- Created with Inkscape (http://www.inkscape.org/) -->

<svg
   width="181.51752mm"
   height="187.15756mm"
   viewBox="0 0 181.51752 187.15756"
   version="1.1"
   id="svg5"
   xml:space="preserve"
   inkscape:version="1.2.1 (9c6d41e410, 2022-07-14)"
   sodipodi:docname="smfabud-logo.svg"
   xmlns:inkscape="http://www.inkscape.org/namespaces/inkscape"
   xmlns:sodipodi="http://sodipodi.sourceforge.net/DTD/sodipodi-0.dtd"
   xmlns="http://www.w3.org/2000/svg"
   xmlns:svg="http://www.w3.org/2000/svg"><style
     id="style2660">
.measure-arrow
{
}
.measure-label
{

}
.measure-line
{
}</style><sodipodi:namedview
     id="namedview7"
     pagecolor="#ffffff"
     bordercolor="#cccccc"
     borderopacity="1"
     inkscape:showpageshadow="0"
     inkscape:pageopacity="1"
     inkscape:pagecheckerboard="0"
     inkscape:deskcolor="#d1d1d1"
     inkscape:document-units="mm"
     showgrid="false"
     inkscape:zoom="2.1089995"
     inkscape:cx="183.02517"
     inkscape:cy="252.25231"
     inkscape:window-width="1920"
     inkscape:window-height="1017"
     inkscape:window-x="1912"
     inkscape:window-y="-8"
     inkscape:window-maximized="1"
     inkscape:current-layer="layer1"
     showguides="true"><sodipodi:guide
       position="282.41488,341.04751"
       orientation="0,-1"
       id="guide360"
       inkscape:locked="false" /><sodipodi:guide
       position="278.24553,323.83783"
       orientation="0,-1"
       id="guide362"
       inkscape:locked="false" /></sodipodi:namedview><defs
     id="defs2"><inkscape:path-effect
       effect="powerstroke"
       id="path-effect247-5"
       is_visible="true"
       lpeversion="1"
       offset_points="1,0"
       not_jump="false"
       sort_points="true"
       interpolator_type="CubicBezierJohan"
       interpolator_beta="0.2"
       start_linecap_type="zerowidth"
       linejoin_type="extrp_arc"
       miter_limit="4"
       scale_width="1"
       end_linecap_type="zerowidth" /><inkscape:path-effect
       effect="powerstroke"
       id="path-effect1762-9"
       is_visible="true"
       lpeversion="1"
       offset_points="7,0"
       not_jump="false"
       sort_points="true"
       interpolator_type="CubicBezierJohan"
       interpolator_beta="0.2"
       start_linecap_type="zerowidth"
       linejoin_type="extrp_arc"
       miter_limit="4"
       scale_width="1"
       end_linecap_type="zerowidth" /><inkscape:path-effect
       effect="powerstroke"
       id="path-effect2503-0"
       is_visible="true"
       lpeversion="1"
       offset_points="4.8849979,-0.38881688"
       not_jump="false"
       sort_points="true"
       interpolator_type="CubicBezierJohan"
       interpolator_beta="0.2"
       start_linecap_type="zerowidth"
       linejoin_type="extrp_arc"
       miter_limit="4"
       scale_width="1"
       end_linecap_type="zerowidth" /><inkscape:path-effect
       effect="powerstroke"
       id="path-effect2533-3"
       is_visible="true"
       lpeversion="1"
       offset_points="2.9933316,0.85932842"
       not_jump="false"
       sort_points="true"
       interpolator_type="CubicBezierJohan"
       interpolator_beta="0.2"
       start_linecap_type="zerowidth"
       linejoin_type="extrp_arc"
       miter_limit="4"
       scale_width="1"
       end_linecap_type="zerowidth" /><inkscape:path-effect
       effect="powerstroke"
       id="path-effect2552-7"
       is_visible="true"
       lpeversion="1"
       offset_points="0,0.30839602"
       not_jump="false"
       sort_points="true"
       interpolator_type="CubicBezierJohan"
       interpolator_beta="0.2"
       start_linecap_type="zerowidth"
       linejoin_type="extrp_arc"
       miter_limit="4"
       scale_width="1"
       end_linecap_type="zerowidth" /><inkscape:path-effect
       effect="powerclip"
       id="path-effect10544-6"
       is_visible="true"
       lpeversion="1"
       inverse="true"
       flatten="false"
       hide_clip="false"
       message="Use fill-rule evenodd on &lt;b&gt;fill and stroke&lt;/b&gt; dialog if no flatten result after convert clip to paths." /><inkscape:path-effect
       effect="powerclip"
       id="path-effect9808-2"
       is_visible="true"
       lpeversion="1"
       inverse="true"
       flatten="false"
       hide_clip="false"
       message="Use fill-rule evenodd on &lt;b&gt;fill and stroke&lt;/b&gt; dialog if no flatten result after convert clip to paths." /><inkscape:path-effect
       effect="powerclip"
       id="path-effect9661-9"
       is_visible="true"
       lpeversion="1"
       inverse="true"
       flatten="false"
       hide_clip="false"
       message="Use fill-rule evenodd on &lt;b&gt;fill and stroke&lt;/b&gt; dialog if no flatten result after convert clip to paths." /><clipPath
       clipPathUnits="userSpaceOnUse"
       id="clipath_lpe_path-effect10544-6"><path
         style="display:none;fill:#000000;fill-opacity:1;stroke:none;stroke-width:0.264583px;stroke-linecap:butt;stroke-linejoin:miter;stroke-opacity:1"
         d="m 51.318549,232.90726 3.681452,-4.03629 1.153226,4.03629 z"
         id="path11281"
         sodipodi:nodetypes="cccc" /><path
         id="lpe_path-effect10544-6"
         style="fill:#000000;fill-opacity:1;stroke:none;stroke-width:0.264583px;stroke-linecap:butt;stroke-linejoin:miter;stroke-opacity:1"
         class="powerclip"
         d="m 32.730419,217.99525 h 41.583153 v 27.24998 H 32.730419 Z m 18.58813,14.91201 h 4.834678 l -1.153226,-4.03629 z" /></clipPath><clipPath
       clipPathUnits="userSpaceOnUse"
       id="clipath_lpe_path-effect9808-2"><g
         id="g11290"
         style="display:none"><path
           style="fill:#000000;fill-opacity:1;stroke:none;stroke-width:0.264583px;stroke-linecap:butt;stroke-linejoin:miter;stroke-opacity:1"
           d="m 87.290322,225.23387 -1.46371,4.92339 c 0,0 4.790544,-0.0322 5.145162,-3.06049 0.230601,-1.96923 -3.681452,-1.8629 -3.681452,-1.8629 z"
           id="path11286"
           sodipodi:nodetypes="ccsc" /><path
           style="fill:#000000;fill-opacity:1;stroke:none;stroke-width:0.264583px;stroke-linecap:butt;stroke-linejoin:miter;stroke-opacity:1"
           d="m 85.383065,232.28629 -1.596774,5.32258 c 0,0 4.812531,0.35266 5.322581,-3.45968 0.270503,-2.02186 -3.725807,-1.8629 -3.725807,-1.8629 z"
           id="path11288"
           sodipodi:nodetypes="ccsc" /></g><path
         id="lpe_path-effect9808-2"
         class="powerclip"
         d="m 67.324478,218.0167 h 38.900482 v 27.19984 H 67.324478 Z m 19.965844,7.21717 -1.46371,4.92339 c 0,0 4.790544,-0.0322 5.145162,-3.06049 0.230601,-1.96923 -3.681452,-1.8629 -3.681452,-1.8629 z m -1.907257,7.05242 -1.596774,5.32258 c 0,0 4.812531,0.35266 5.322581,-3.45968 0.270503,-2.02186 -3.725807,-1.8629 -3.725807,-1.8629 z" /></clipPath><clipPath
       clipPathUnits="userSpaceOnUse"
       id="clipath_lpe_path-effect9661-9"><path
         style="display:none;fill:#000000;fill-opacity:1;stroke:none;stroke-width:0.264583px;stroke-linecap:butt;stroke-linejoin:miter;stroke-opacity:1"
         d="m 149.32213,225.28479 -3.57545,12.41999 c 0,0 10.81635,1.39329 12.38863,-8.1859 0.8294,-5.05318 -8.81318,-4.23409 -8.81318,-4.23409 z"
         id="path11295"
         sodipodi:nodetypes="ccsc" /><path
         id="lpe_path-effect9661-9"
         style="fill:#000000;fill-opacity:1;stroke:none;stroke-width:0.264583px;stroke-linecap:butt;stroke-linejoin:miter;stroke-opacity:1"
         class="powerclip"
         d="m 129.23624,217.97201 h 44.00007 v 27.25581 h -44.00007 z m 20.08589,7.31278 -3.57545,12.41999 c 0,0 10.81635,1.39329 12.38863,-8.1859 0.8294,-5.05318 -8.81318,-4.23409 -8.81318,-4.23409 z" /></clipPath></defs><g
     inkscape:label="Layer 1"
     inkscape:groupmode="layer"
     id="layer1"
     style="display:inline"
     transform="translate(251.27779,-376.90609)"><path
       style="display:inline;fill:#b53a3a;fill-opacity:1;fill-rule:nonzero;stroke:none;stroke-width:0.264583px;stroke-linecap:butt;stroke-linejoin:miter;stroke-opacity:1"
       d="m -205.67203,454.61489 c 0,0 1.00954,-0.98201 5.18088,-4.05375 2.97396,-2.19 7.46599,-5.29288 12.55523,-8.0526 2.48873,-1.34955 5.0629,-2.58599 7.64268,-3.59995 2.71152,-1.06575 5.3273,-1.84566 7.80586,-2.28857 2.78748,-0.4981 5.24723,-0.54254 7.40892,-0.2068 2.84296,0.44154 4.92486,1.50319 6.45184,2.64532 -1.52698,-1.14213 -3.60888,-2.20378 -6.45184,-2.64532 -2.16169,-0.33574 -4.62144,-0.2913 -7.40892,0.2068 -2.47856,0.44291 -5.09434,1.22282 -7.80585,2.28856 -2.57979,1.01397 -5.15396,2.25041 -7.64268,3.59996 -5.08925,2.75972 -9.58128,5.8626 -12.55524,8.0526 -4.17134,3.07174 -5.18088,4.05375 -5.18088,4.05375 z"
       id="path245-1"
       inkscape:path-effect="#path-effect247-5"
       inkscape:original-d="m -205.67203,454.61489 c 0,0 31.61451,-27.09815 47.04541,-15.55635"
       inkscape:export-filename="cleanSMFlogo.svg"
       inkscape:export-xdpi="51.2"
       inkscape:export-ydpi="51.2" /><path
       style="display:inline;fill:none;fill-opacity:1;fill-rule:nonzero;stroke:#101277;stroke-width:9.4;stroke-linecap:butt;stroke-linejoin:round;stroke-dasharray:none;stroke-opacity:1"
       d="m -161.52606,389.98792 c 0,0 -12.77317,-0.38523 -19.16129,-0.35484 -6.33037,0.0301 -12.66944,0.0822 -18.98387,0.53226 -7.06536,0.50353 -10.54097,0.67455 -14.01613,4.08065 -5.08953,4.98839 -7.15444,13.31813 -6.3871,20.40322 1.02678,9.48057 3.82046,18.21177 14.19355,24.83871 12.86385,8.21819 13.24652,8.58979 40.2742,25.01613 1.83413,-29.52527 4.08064,-74.51613 4.08064,-74.51613 z"
       id="path1760-1"
       inkscape:path-effect="#path-effect1762-9"
       inkscape:original-d="m -161.52606,389.98792 c 0,0 -12.77317,-0.38523 -19.16129,-0.35484 -6.33037,0.0301 -12.66944,0.0822 -18.98387,0.53226 -7.06536,0.50353 -10.54097,0.67455 -14.01613,4.08065 -5.08953,4.98839 -7.15444,13.31813 -6.3871,20.40322 1.02678,9.48057 3.82046,18.21177 14.19355,24.83871 12.86385,8.21819 13.24652,8.58979 40.2742,25.01613 1.83413,-29.52527 4.08064,-74.51613 4.08064,-74.51613 z"
       sodipodi:nodetypes="casaascc" /><path
       style="display:inline;fill:none;fill-opacity:1;fill-rule:nonzero;stroke:#101277;stroke-width:9.4;stroke-linecap:butt;stroke-linejoin:round;stroke-dasharray:none;stroke-opacity:1"
       d="m -223.05795,443.42666 c -1.75905,21.02411 -4.36815,52.20794 -7.41652,88.64189 1.06012,0.003 4.05884,0.001 8.35863,-0.0748 5.03679,-0.0892 11.96386,-0.28885 18.67499,-0.7419 3.07344,-0.20749 6.38729,-0.35552 9.46072,-0.56301 2.98111,-0.19952 5.7795,-0.45871 8.36443,-0.91991 2.59007,-0.46211 4.94678,-1.12379 7.05309,-2.11922 2.1234,-1.0035 3.98302,-2.34197 5.56708,-4.14425 2.40506,-2.73635 4.1504,-6.23661 5.26983,-10.08068 1.14948,-3.94732 1.63486,-8.23828 1.52066,-12.46142 -0.11864,-4.38715 -0.88144,-8.67185 -2.19708,-12.5038 -1.38608,-4.03711 -3.36548,-7.52147 -5.82986,-10.20881 -3.88572,-4.23727 -8.96774,-8.48951 -14.05851,-12.31134 -5.58626,-4.19382 -11.41907,-8.04624 -16.28045,-11.10061 -8.8153,-5.53858 -16.22447,-9.57212 -17.77722,-10.41426 -0.31073,-0.16852 -0.64072,-0.34647 -0.94959,-0.51145 -0.25977,-0.13876 -0.32924,-0.17502 -0.32885,-0.17482 z m -0.20627,-0.37644 c 3.9e-4,2e-4 0.0714,0.0373 0.33286,0.17694 0.31066,0.16595 0.64215,0.34471 0.95393,0.5138 1.55889,0.84547 8.98453,4.888 17.8202,10.43938 4.872,3.06104 10.72421,6.92598 16.33361,11.13717 5.10761,3.83447 10.23251,8.11962 14.16477,12.40765 2.54917,2.77979 4.57791,6.36256 5.99222,10.48187 1.34274,3.91086 2.1183,8.27399 2.23894,12.73529 0.11612,4.29407 -0.37681,8.66638 -1.55139,12.69986 -1.1433,3.92605 -2.93531,7.53563 -5.43235,10.37664 -1.66078,1.88956 -3.60898,3.28956 -5.81891,4.33396 -2.18731,1.0337 -4.61512,1.7118 -7.24877,2.18168 -2.62724,0.46875 -5.45919,0.73016 -8.44908,0.93027 -3.23205,0.21631 -6.22824,0.34666 -9.46028,0.56297 -6.72931,0.45428 -13.67064,0.65421 -18.72049,0.74361 -5.43374,0.0961 -8.78807,0.0732 -8.78807,0.0732 l -0.42252,-0.002 0.0351,-0.41895 c 3.06344,-36.61408 5.68582,-67.95666 7.45162,-89.06143 z"
       id="path2501-6"
       inkscape:path-effect="#path-effect2503-0"
       inkscape:original-d="m -223.44541,443.39424 -7.45162,89.06143 c 0,0 14.25572,0.077 27.48237,-0.8159 13.22666,-0.89294 24.1823,-0.44939 30.71118,-7.87763 9.70527,-11.04218 9.07435,-34.52457 -1.24193,-45.77419 -15.11647,-16.48408 -49.5,-34.59371 -49.5,-34.59371 z"
       sodipodi:nodetypes="ccsssc" /><path
       style="display:inline;fill:none;fill-opacity:1;fill-rule:nonzero;stroke:#101277;stroke-width:9.4;stroke-linecap:butt;stroke-linejoin:round;stroke-dasharray:none;stroke-opacity:1"
       d="M -85.486697,390.38223 -139.55755,533.27482 -97.851992,532.773 Z"
       id="path2531-7"
       inkscape:path-effect="#path-effect2533-3"
       inkscape:original-d="M -85.486697,390.38223 -139.55755,533.27482 -97.851992,532.773 Z"
       sodipodi:nodetypes="cccc" /><path
       style="display:inline;fill:none;fill-opacity:1;fill-rule:nonzero;stroke:#101277;stroke-width:9.4;stroke-linecap:butt;stroke-linejoin:round;stroke-dasharray:none;stroke-opacity:1"
       d="m -145.14027,389.81768 -8.21726,142.57895 38.89087,-102.62172 -24.58907,-39.8945 z"
       id="path2550-2"
       inkscape:path-effect="#path-effect2552-7"
       inkscape:original-d="m -145.14027,389.81768 -8.21726,142.57895 38.89087,-102.62172 -24.58907,-39.8945 z"
       sodipodi:nodetypes="ccccc" /><path
       style="display:inline;fill:#ff1c00;fill-opacity:1;stroke:none;stroke-width:0.264583px;stroke-linecap:butt;stroke-linejoin:miter;stroke-opacity:1"
       d="m -241.64609,559.58889 5.23772,-17.24998 h 19.85316 l -0.72136,2.88545 h -9.47181 l -1.09772,3.85772 h 8.90726 l -0.75273,2.72863 h -9.31499 l -2.415,7.77818 z"
       id="path6411-1" /><path
       style="display:inline;fill:#ff1c00;fill-opacity:1;stroke:none;stroke-width:0.264583px;stroke-linecap:butt;stroke-linejoin:miter;stroke-opacity:1"
       d="m 37.730419,240.18251 15.775895,-17.18726 h 9.597263 l 6.209995,17.18726 H 58.022674 l -1.317273,-4.98682 h -7.370447 l -4.390906,5.04954 z"
       id="path6413-8"
       clip-path="url(#clipath_lpe_path-effect10544-6)"
       inkscape:path-effect="#path-effect10544-6"
       inkscape:original-d="m 37.730419,240.18251 15.775895,-17.18726 h 9.597263 l 6.209995,17.18726 H 58.022674 l -1.317273,-4.98682 h -7.370447 l -4.390906,5.04954 z"
       transform="translate(-259.9938,319.37502)" /><path
       style="display:inline;fill:#ff1c00;fill-opacity:1;stroke:none;stroke-width:0.264583px;stroke-linecap:butt;stroke-linejoin:miter;stroke-opacity:1"
       d="m 72.324478,240.21387 5.112268,-17.18726 c 0,0 6.142024,-0.0223 18.818164,0 3.733644,0.007 5.13124,2.29325 4.95545,4.07727 -0.25274,2.56495 -6.805903,3.66954 -6.805903,3.66954 0,0 5.590066,0.80293 5.394542,3.70091 -0.2792,4.1382 -7.423829,5.73669 -11.039991,5.73954 -7.386722,0.006 -16.43453,0 -16.43453,0 z"
       id="path6501-6"
       sodipodi:nodetypes="ccsscssc"
       clip-path="url(#clipath_lpe_path-effect9808-2)"
       inkscape:path-effect="#path-effect9808-2"
       inkscape:original-d="m 72.324478,240.21387 5.112268,-17.18726 c 0,0 6.142024,-0.0223 18.818164,0 3.733644,0.007 5.13124,2.29325 4.95545,4.07727 -0.25274,2.56495 -6.805903,3.66954 -6.805903,3.66954 0,0 5.590066,0.80293 5.394542,3.70091 -0.2792,4.1382 -7.423829,5.73669 -11.039991,5.73954 -7.386722,0.006 -16.43453,0 -16.43453,0 z"
       transform="translate(-259.9938,319.37502)" /><path
       style="display:inline;fill:#ff1c00;fill-opacity:1;stroke:none;stroke-width:0.264583px;stroke-linecap:butt;stroke-linejoin:miter;stroke-opacity:1"
       d="m -152.88708,542.37027 c 0,0 -0.0417,0.0788 -3.35591,11.8868 -0.38059,1.388 0.8357,2.87589 1.97591,3.66955 3.27516,2.27972 9.55471,1.64199 11.85544,1.66227 2.30073,0.0203 7.44319,-0.1637 11.13408,-2.16409 1.3999,-0.75872 2.66107,-2.43345 3.16773,-3.57545 3.24142,-11.06995 3.3559,-11.44772 3.3559,-11.44772 h -7.96635 c 0,0 -0.0341,0.18281 -3.54409,12.26317 -0.72517,1.94085 -2.58744,3.1572 -5.80227,2.88545 -1.82382,-0.3692 -4.84961,-0.2501 -3.63818,-4.23408 3.28319,-10.90572 3.26182,-10.9459 3.26182,-10.9459 z"
       id="path6590-4"
       sodipodi:nodetypes="ccczscccccccc" /><path
       style="display:inline;fill:#ff1c00;fill-opacity:1;stroke:none;stroke-width:0.264583px;stroke-linecap:butt;stroke-linejoin:miter;stroke-opacity:1"
       d="m 134.23624,240.18251 5.17499,-17.18726 c 0,0 9.61211,-0.0523 19.00635,0 5.91892,0.033 9.72813,2.99163 9.81681,6.93135 0.15168,6.7381 -8.70729,10.24859 -17.4068,10.28727 -9.9832,0.0444 -16.59135,-0.0314 -16.59135,-0.0314 z"
       id="path7494-0"
       sodipodi:nodetypes="ccssscc"
       clip-path="url(#clipath_lpe_path-effect9661-9)"
       inkscape:path-effect="#path-effect9661-9"
       inkscape:original-d="m 134.23624,240.18251 5.17499,-17.18726 c 0,0 9.61211,-0.0523 19.00635,0 5.91892,0.033 9.72813,2.99163 9.81681,6.93135 0.15168,6.7381 -8.70729,10.24859 -17.4068,10.28727 -9.9832,0.0444 -16.59135,-0.0314 -16.59135,-0.0314 z"
       transform="translate(-259.9938,319.37502)" /><path
       style="display:inline;fill:none;stroke:#101277;stroke-width:2.865;stroke-linecap:butt;stroke-linejoin:miter;stroke-dasharray:none;stroke-opacity:1"
       d="m -232.64473,378.3386 h 161.334383 l -14.55271,184.29256 H -249.70654 Z"
       id="path10659-8" /></g></svg>
